<svg xmlns="http://www.w3.org/2000/svg" viewBox="0 0 1200 170" width="1200" height="170" role="img" aria-label="ResumeForge footer">
  <defs>
    <linearGradient id="fbg" x1="0" y1="0" x2="1200" y2="170" gradientUnits="userSpaceOnUse">
      <stop offset="0" stop-color="#0f1217"/>
      <stop offset="1" stop-color="#1b2330"/>
    </linearGradient>
    <linearGradient id="accent" x1="0" y1="0" x2="1200" y2="0" gradientUnits="userSpaceOnUse">
      <stop offset="0" stop-color="#3b82f6"/><stop offset="1" stop-color="#7c5cff"/>
    </linearGradient>
    <linearGradient id="ftile" x1="0" y1="0" x2="56" y2="56" gradientUnits="userSpaceOnUse">
      <stop offset="0" stop-color="#3b82f6"/><stop offset="1" stop-color="#7c5cff"/>
    </linearGradient>
  </defs>

  <rect width="1200" height="170" fill="url(#fbg)"/>
  <rect width="1200" height="5" fill="url(#accent)"/>

  <!-- left: logo + name + line -->
  <rect x="60" y="56" width="58" height="58" rx="15" fill="url(#ftile)"/>
  <text x="89" y="96" text-anchor="middle" font-family="Inter, 'Segoe UI', Arial, Helvetica, sans-serif" font-weight="800" font-size="27" letter-spacing="-2" fill="#ffffff">RF</text>
  <text x="136" y="80" font-family="Inter, 'Segoe UI', Arial, Helvetica, sans-serif" font-weight="700" font-size="26" fill="#ffffff">ResumeForge</text>
  <text x="138" y="106" font-family="Inter, 'Segoe UI', Arial, Helvetica, sans-serif" font-weight="500" font-size="15" fill="#9fb0c4">Free Forever &#183; No Login &#183; Runs In Your Browser</text>

  <!-- right: real social logos -->
  <g transform="translate(1042,48)">
    <!-- LinkedIn -->
    <g transform="scale(1.08)" fill="#4aa3ff"><path d="M20.447 20.452h-3.554v-5.569c0-1.328-.027-3.037-1.852-3.037-1.853 0-2.136 1.445-2.136 2.939v5.667H9.351V9h3.414v1.561h.046c.477-.9 1.637-1.852 3.37-1.852 3.601 0 4.267 2.37 4.267 5.455v6.288zM5.337 7.433a2.062 2.062 0 01-2.063-2.065 2.064 2.064 0 112.063 2.065zm1.782 13.019H3.555V9h3.564v11.452zM22.225 0H1.771C.792 0 0 .774 0 1.729v20.542C0 23.227.792 24 1.771 24h20.451C23.2 24 24 23.227 24 22.271V1.729C24 .774 23.2 0 22.225 0z"/></g>
  </g>
  <g transform="translate(1078,48)">
    <!-- GitHub -->
    <g transform="scale(1.08)" fill="#ffffff"><path d="M12 .297c-6.63 0-12 5.373-12 12 0 5.303 3.438 9.8 8.205 11.385.6.113.82-.258.82-.577 0-.285-.01-1.04-.015-2.04-3.338.724-4.042-1.61-4.042-1.61C4.422 18.07 3.633 17.7 3.633 17.7c-1.087-.744.084-.729.084-.729 1.205.084 1.838 1.236 1.838 1.236 1.07 1.835 2.809 1.305 3.495.998.108-.776.417-1.305.76-1.605-2.665-.305-5.467-1.334-5.467-5.931 0-1.311.469-2.381 1.236-3.221-.124-.303-.535-1.524.117-3.176 0 0 1.008-.322 3.301 1.23A11.509 11.509 0 0112 5.803c1.02.005 2.047.138 3.006.404 2.291-1.552 3.297-1.23 3.297-1.23.653 1.653.242 2.874.118 3.176.77.84 1.235 1.91 1.235 3.221 0 4.609-2.807 5.624-5.479 5.921.43.372.823 1.102.823 2.222 0 1.606-.014 2.898-.014 3.293 0 .322.216.694.825.576C20.565 22.092 24 17.592 24 12.297c0-6.627-5.373-12-12-12"/></g>
  </g>
  <g transform="translate(1114,48)">
    <!-- X -->
    <g transform="scale(1.08)" fill="#ffffff"><path d="M18.244 2.25h3.308l-7.227 8.26 8.502 11.24H16.17l-5.214-6.817L4.99 21.75H1.68l7.73-8.835L1.254 2.25H8.08l4.713 6.231zm-1.161 17.52h1.833L7.084 4.126H5.117z"/></g>
  </g>

  <text x="1140" y="104" text-anchor="end" font-family="Inter, 'Segoe UI', Arial, Helvetica, sans-serif" font-weight="500" font-size="13" fill="#74808f">&#169; Aman Debnath 2026 &#183; Bangalore, India</text>

  <text x="600" y="150" text-anchor="middle" font-family="Inter, 'Segoe UI', Arial, Helvetica, sans-serif" font-weight="500" font-size="12" fill="#5f6b7a">Made With Care For Job Seekers Everywhere</text>
</svg>
